<?xml version="1.0" encoding="UTF-8"?>
<svg xmlns="http://www.w3.org/2000/svg" xmlns:xlink="http://www.w3.org/1999/xlink" width="400pt" height="461pt" viewBox="0 0 400 461" version="1.1">
<g id="surface1">
<path style=" stroke:none;fill-rule:nonzero;fill:rgb(100%,90.196078%,0%);fill-opacity:1;" d="M 0.335938 146.25 L 400.292969 0.382812 L 400.335938 0.382812 L 400.335938 75.734375 L 0.335938 146.292969 Z M 0.335938 146.25 "/>
<path style=" stroke:none;fill-rule:nonzero;fill:rgb(50.196078%,50.196078%,50.196078%);fill-opacity:1;" d="M 8.949219 382.90625 L 17.363281 382.90625 L 18.5 382.675781 L 19.402344 382.445312 L 20.304688 381.988281 L 21.226562 381.066406 L 21.457031 380.394531 L 21.6875 379.03125 L 21.457031 378.140625 L 21.226562 377.46875 L 20.996094 376.792969 L 20.535156 376.335938 L 19.863281 375.875 L 18.957031 375.644531 L 16.917969 375.417969 L 8.949219 375.417969 Z M 8.949219 398.574219 L 18.5 398.574219 L 19.632812 398.34375 L 20.535156 397.882812 L 21.210938 397.210938 L 21.886719 396.535156 L 22.34375 395.632812 L 22.574219 394.730469 L 22.804688 393.597656 L 22.574219 392.460938 L 22.34375 391.328125 L 21.886719 390.425781 L 21.425781 389.75 L 20.519531 389.292969 L 19.617188 388.832031 L 18.710938 388.601562 L 8.949219 388.601562 Z M 2.589844 404.46875 L 2.589844 369.289062 L 17.59375 369.289062 L 19.863281 369.519531 L 22.128906 369.980469 L 23.953125 370.652344 L 25.546875 371.785156 L 26.910156 373.148438 L 27.816406 374.742188 L 28.277344 376.566406 L 28.503906 378.601562 L 28.277344 379.503906 L 28.046875 380.640625 L 27.816406 381.542969 L 27.355469 382.675781 L 26.683594 383.351562 L 26.007812 384.253906 L 25.332031 384.925781 L 24.429688 385.386719 L 26.023438 386.289062 L 26.925781 386.964844 L 27.832031 387.867188 L 28.503906 388.773438 L 29.179688 390.132812 L 29.410156 391.496094 L 29.640625 393.320312 L 29.410156 395.816406 L 28.734375 398.082031 L 27.832031 399.90625 L 26.46875 401.5 L 24.644531 402.863281 L 22.605469 403.765625 L 20.105469 404.226562 L 17.378906 404.453125 Z M 42.359375 404.929688 L 40.996094 404.699219 L 39.863281 404.46875 L 38.726562 403.796875 L 37.824219 403.335938 L 37.148438 402.433594 L 35.785156 400.839844 L 34.882812 399.019531 L 34.421875 396.980469 L 34.191406 395.15625 L 34.191406 378.800781 L 40.550781 378.800781 L 40.550781 394.46875 L 40.78125 395.832031 L 41.242188 396.734375 L 41.699219 397.640625 L 42.390625 398.3125 L 43.066406 398.773438 L 44.199219 399.230469 L 46.238281 399.230469 L 47.371094 398.773438 L 48.046875 398.3125 L 48.734375 397.640625 L 49.410156 396.734375 L 49.640625 395.832031 L 50.101562 393.105469 L 50.101562 378.800781 L 56.230469 378.800781 L 56.230469 404.453125 L 50.101562 404.453125 L 50.101562 402.417969 L 48.734375 403.550781 L 47.371094 404.453125 L 45.546875 404.914062 L 43.722656 405.144531 Z M 140.550781 404.46875 L 140.550781 388.800781 L 140.320312 387.667969 L 139.863281 386.535156 L 139.402344 385.632812 L 138.726562 384.957031 L 138.039062 384.5 L 136.902344 384.269531 L 136 384.039062 L 134.867188 384.269531 L 133.730469 384.5 L 133.058594 384.957031 L 132.382812 385.632812 L 131.695312 386.535156 L 131.234375 387.667969 L 131.003906 388.800781 L 131.003906 404.46875 L 124.644531 404.46875 L 124.644531 378.816406 L 131.003906 378.816406 L 131.003906 381.082031 L 132.367188 379.71875 L 133.960938 379.046875 L 135.554688 378.371094 L 139.648438 378.371094 L 141.472656 379.046875 L 143.066406 379.949219 L 144.429688 381.3125 L 145.5625 382.90625 L 146.238281 384.941406 L 146.699219 387.210938 L 146.925781 389.9375 L 146.925781 404.46875 Z M 62.128906 378.816406 L 68.492188 378.816406 L 68.492188 404.46875 L 62.128906 404.46875 Z M 73.945312 404.46875 L 73.945312 371.328125 L 80.304688 368.140625 L 80.304688 404.46875 Z M 95.308594 384.269531 L 94.40625 384.5 L 93.5 384.726562 L 92.828125 385.402344 L 92.152344 386.304688 L 91.695312 387.667969 L 91.464844 389.261719 L 91.234375 391.296875 L 91.464844 393.566406 L 91.695312 395.386719 L 92.152344 396.75 L 92.828125 397.65625 L 93.730469 398.328125 L 94.40625 398.789062 L 95.308594 399.246094 L 96.214844 399.246094 L 97.578125 399.019531 L 98.941406 398.34375 L 99.847656 397.671875 L 100.519531 396.765625 L 100.519531 386.550781 L 99.847656 385.875 L 98.941406 384.972656 L 97.578125 384.300781 L 95.984375 384.070312 Z M 92.582031 404.929688 L 90.542969 404.253906 L 88.949219 403.121094 L 87.355469 401.515625 L 86.222656 399.476562 L 85.546875 397.210938 L 85.089844 394.484375 L 84.859375 391.527344 L 85.089844 388.574219 L 85.546875 385.847656 L 86.453125 383.808594 L 87.585938 381.773438 L 88.949219 380.410156 L 90.773438 379.277344 L 92.597656 378.601562 L 94.867188 378.371094 L 96.460938 378.371094 L 98.054688 378.832031 L 99.417969 379.503906 L 100.550781 380.640625 L 100.550781 371.328125 L 106.910156 368.15625 L 106.910156 404.484375 L 100.550781 404.484375 L 100.550781 402.664062 L 97.824219 404.46875 L 96.460938 404.929688 L 94.867188 405.160156 Z M 236.691406 384.269531 L 235.324219 384.726562 L 234.421875 385.632812 L 233.515625 386.765625 L 233.515625 396.75 L 234.191406 397.425781 L 235.097656 398.328125 L 236.460938 399.003906 L 237.132812 399.230469 L 238.039062 399.230469 L 239.171875 399.003906 L 240.078125 398.773438 L 240.980469 398.097656 L 241.65625 397.195312 L 242.113281 396.0625 L 242.34375 394.699219 L 242.574219 393.105469 L 242.804688 391.285156 L 242.574219 389.460938 L 242.34375 387.867188 L 241.886719 386.734375 L 241.210938 385.601562 L 240.535156 384.925781 L 239.632812 384.46875 L 238.726562 384.238281 L 238.054688 384.007812 Z M 237.59375 404.929688 L 236 404.46875 L 234.636719 403.566406 L 233.5 402.664062 L 233.5 404.484375 L 227.140625 404.484375 L 227.140625 372.015625 L 233.5 368.832031 L 233.5 380.640625 L 234.636719 379.734375 L 236.230469 378.832031 L 237.59375 378.371094 L 239.1875 378.371094 L 241.457031 378.601562 L 243.28125 379.277344 L 245.101562 380.410156 L 246.46875 381.773438 L 247.601562 383.808594 L 248.503906 385.847656 L 248.964844 388.574219 L 249.195312 391.527344 L 248.964844 394.484375 L 248.503906 397.210938 L 247.832031 399.476562 L 246.699219 401.515625 L 245.101562 403.105469 L 243.507812 404.242188 L 241.472656 404.914062 L 239.203125 405.144531 Z M 160.78125 384.269531 L 159.878906 384.726562 L 159.203125 385.402344 L 158.511719 386.304688 L 158.054688 387.667969 L 157.824219 389.261719 L 157.59375 391.296875 L 157.824219 393.566406 L 158.054688 395.15625 L 158.511719 396.75 L 159.203125 397.65625 L 159.878906 398.328125 L 160.78125 398.789062 L 161.6875 399.246094 L 162.359375 399.246094 L 163.953125 399.019531 L 165.089844 398.34375 L 166.222656 397.671875 L 166.898438 396.765625 L 166.898438 386.550781 L 166.222656 385.648438 L 165.316406 384.972656 L 163.953125 384.300781 L 162.359375 384.070312 L 161.457031 384.070312 Z M 158.5 409.921875 L 158.726562 409.921875 L 161.457031 409.691406 L 163.496094 409.234375 L 164.859375 408.558594 L 165.992188 407.65625 L 166.453125 406.523438 L 166.910156 405.390625 L 166.910156 402.664062 L 164.183594 404.46875 L 162.820312 404.929688 L 160.996094 405.160156 L 158.957031 404.929688 L 156.917969 404.027344 L 155.324219 402.890625 L 153.730469 401.53125 L 152.597656 399.492188 L 151.921875 397.226562 L 151.25 394.5 L 151.25 388.585938 L 151.921875 385.863281 L 152.597656 383.59375 L 153.960938 381.773438 L 155.324219 380.179688 L 157.148438 379.277344 L 158.972656 378.601562 L 161.242188 378.371094 L 162.835938 378.371094 L 164.429688 378.832031 L 165.792969 379.734375 L 166.925781 380.640625 L 166.925781 378.816406 L 173.289062 378.816406 L 173.289062 402.203125 L 173.058594 405.160156 L 172.597656 407.65625 L 171.464844 409.921875 L 171.003906 410.824219 L 170.101562 411.730469 L 169.425781 412.402344 L 168.519531 413.078125 L 166.253906 413.980469 L 163.753906 414.65625 L 160.796875 414.882812 Z M 197.363281 392.660156 L 196.691406 392.890625 L 196.015625 393.351562 L 195.554688 393.808594 L 195.097656 394.484375 L 194.867188 395.15625 L 194.867188 396.734375 L 195.097656 397.640625 L 195.554688 398.3125 L 196.015625 398.773438 L 196.691406 399.230469 L 197.363281 399.460938 L 198.269531 399.691406 L 199.171875 399.921875 L 200.765625 399.691406 L 202.359375 399.019531 L 204.167969 397.210938 L 204.167969 393.582031 L 203.035156 393.121094 L 201.898438 392.660156 L 200.535156 392.433594 L 198.269531 392.433594 Z M 196.230469 404.929688 L 194.636719 404.699219 L 193.042969 404.027344 L 191.679688 403.121094 L 190.3125 401.757812 L 189.410156 400.167969 L 188.734375 398.34375 L 188.503906 396.078125 L 188.734375 393.808594 L 189.410156 391.988281 L 190.542969 390.625 L 191.90625 389.492188 L 193.5 388.585938 L 195.097656 388.128906 L 196.917969 387.667969 L 200.105469 387.667969 L 201.699219 387.898438 L 203.066406 388.359375 L 204.199219 388.816406 L 204.199219 386.320312 L 203.96875 385.417969 L 203.507812 384.742188 L 203.050781 384.285156 L 202.375 383.824219 L 201.472656 383.59375 L 199.648438 383.363281 L 196 383.824219 L 194.40625 384.5 L 193.042969 385.171875 L 190.542969 380.851562 L 192.8125 379.71875 L 195.082031 378.816406 L 197.578125 378.355469 L 202.34375 378.355469 L 204.382812 378.816406 L 206.207031 379.71875 L 207.800781 380.625 L 208.933594 381.988281 L 209.839844 383.351562 L 210.300781 385.171875 L 210.527344 387.210938 L 210.527344 404.46875 L 204.167969 404.46875 L 204.167969 402.433594 L 202.804688 403.566406 L 200.980469 404.46875 L 199.386719 404.929688 L 198.023438 405.160156 Z M 262.820312 383.808594 L 261.914062 384.039062 L 261.011719 384.5 L 260.335938 385.171875 L 259.878906 385.847656 L 259.417969 386.75 L 258.957031 387.882812 L 258.957031 389.015625 L 268.503906 389.015625 L 268.277344 386.980469 L 267.816406 386.074219 L 267.355469 385.402344 L 266.683594 384.726562 L 265.777344 384.054688 L 264.875 383.824219 L 263.738281 383.59375 Z M 261.914062 404.929688 L 259.417969 404.027344 L 257.378906 402.890625 L 255.785156 401.53125 L 254.191406 399.492188 L 253.289062 397.226562 L 252.613281 394.730469 L 252.382812 391.773438 L 252.613281 388.816406 L 253.289062 386.320312 L 254.191406 384.054688 L 255.554688 382.015625 L 257.378906 380.425781 L 259.203125 379.292969 L 261.472656 378.617188 L 263.96875 378.386719 L 266.238281 378.617188 L 268.277344 379.292969 L 270.101562 380.425781 L 271.695312 382.015625 L 273.058594 383.839844 L 273.960938 386.105469 L 274.421875 388.832031 L 274.652344 391.789062 L 274.652344 393.609375 L 258.742188 393.609375 L 259.203125 395.433594 L 259.664062 396.796875 L 261.242188 398.375 L 262.375 398.832031 L 263.050781 399.0625 L 264.644531 399.292969 L 266.238281 399.0625 L 267.601562 398.605469 L 268.734375 397.929688 L 269.640625 397.027344 L 273.730469 401.117188 L 272.597656 402.019531 L 271.695312 402.921875 L 270.558594 403.597656 L 269.425781 404.054688 L 267.15625 404.960938 L 264.660156 405.191406 Z M 323.96875 383.808594 L 323.066406 384.039062 L 322.390625 384.5 L 321.714844 385.171875 L 321.042969 385.847656 L 320.582031 386.75 L 320.351562 387.882812 L 320.351562 389.015625 L 329.898438 389.015625 L 329.441406 386.980469 L 329.210938 386.074219 L 328.75 385.402344 L 328.078125 384.726562 L 327.171875 384.054688 L 326.269531 383.824219 L 325.132812 383.59375 Z M 323.28125 404.929688 L 320.78125 404.027344 L 318.742188 402.890625 L 316.917969 401.53125 L 315.554688 399.492188 L 314.421875 397.226562 L 313.960938 394.730469 L 313.730469 391.773438 L 313.960938 388.816406 L 314.421875 386.320312 L 315.554688 384.054688 L 316.917969 382.015625 L 318.511719 380.425781 L 320.550781 379.292969 L 322.820312 378.617188 L 325.089844 378.386719 L 327.585938 378.617188 L 329.625 379.292969 L 331.449219 380.425781 L 333.042969 382.015625 L 334.175781 383.839844 L 335.082031 386.105469 L 335.753906 388.832031 L 335.984375 391.789062 L 335.984375 393.609375 L 320.078125 393.609375 L 320.304688 395.433594 L 320.980469 396.796875 L 321.65625 397.699219 L 322.558594 398.375 L 323.464844 398.832031 L 324.367188 399.0625 L 325.730469 399.292969 L 327.324219 399.0625 L 328.691406 398.605469 L 329.824219 397.929688 L 330.957031 397.027344 L 334.820312 401.117188 L 333.914062 402.019531 L 332.78125 402.921875 L 331.878906 403.597656 L 330.742188 404.054688 L 328.246094 404.960938 L 325.746094 405.191406 Z M 303.738281 404.914062 L 302.144531 404.242188 L 301.011719 403.566406 L 300.105469 402.433594 L 299.433594 401.300781 L 298.972656 399.9375 L 298.511719 397.210938 L 298.511719 384.726562 L 294.652344 384.726562 L 294.652344 378.832031 L 298.511719 378.832031 L 298.511719 372.246094 L 304.875 369.058594 L 304.875 378.816406 L 310.789062 378.816406 L 310.789062 384.714844 L 304.875 384.714844 L 304.875 395.601562 L 305.101562 397.195312 L 305.5625 398.097656 L 306.023438 398.558594 L 306.484375 398.789062 L 307.617188 399.019531 L 308.75 399.019531 L 309.65625 398.789062 L 311.480469 397.882812 L 310.804688 403.78125 L 309.671875 404.453125 L 308.304688 404.683594 L 306.941406 404.914062 L 305.347656 405.144531 Z M 285.546875 404.914062 L 283.953125 404.242188 L 282.820312 403.566406 L 281.914062 402.433594 L 281.226562 401.300781 L 280.765625 399.9375 L 280.304688 397.210938 L 280.304688 384.726562 L 276.445312 384.726562 L 276.445312 378.832031 L 280.304688 378.832031 L 280.304688 372.246094 L 286.667969 369.058594 L 286.667969 378.816406 L 292.121094 378.816406 L 292.121094 384.714844 L 286.667969 384.714844 L 286.667969 395.601562 L 286.898438 397.195312 L 287.355469 398.097656 L 287.816406 398.558594 L 288.277344 398.789062 L 289.410156 399.019531 L 290.542969 399.019531 L 291.449219 398.789062 L 293.273438 397.882812 L 292.597656 403.78125 L 291.464844 404.453125 L 290.101562 404.683594 L 288.734375 404.914062 L 287.140625 405.144531 Z M 340.105469 404.46875 L 340.105469 378.816406 L 346.46875 378.816406 L 346.46875 381.082031 L 347.601562 379.71875 L 348.964844 379.046875 L 350.558594 378.371094 L 353.289062 378.371094 L 354.652344 378.601562 L 355.785156 379.277344 L 356.917969 379.734375 L 355.097656 386.089844 L 354.191406 385.417969 L 353.289062 384.957031 L 352.152344 384.726562 L 349.886719 384.726562 L 348.980469 384.957031 L 348.304688 385.417969 L 347.632812 386.089844 L 347.171875 386.996094 L 346.710938 387.898438 L 346.484375 389.261719 L 346.484375 404.46875 Z M 62.128906 368.832031 L 68.492188 368.832031 L 68.492188 375.1875 L 62.128906 375.1875 Z M 112.597656 378.816406 L 118.957031 378.816406 L 118.957031 404.46875 L 112.597656 404.46875 Z M 112.597656 368.832031 L 118.957031 368.832031 L 118.957031 375.1875 L 112.597656 375.1875 Z M 287.140625 429.203125 L 286.46875 429.664062 L 285.792969 430.339844 L 285.117188 431.242188 L 284.660156 432.375 L 284.199219 434.199219 L 284.199219 438.285156 L 284.660156 440.109375 L 285.117188 441.472656 L 285.792969 442.605469 L 286.46875 443.28125 L 287.371094 443.738281 L 288.0625 443.96875 L 290.558594 443.96875 L 291.695312 443.296875 L 292.597656 442.390625 L 293.5 441.488281 L 293.5 431.503906 L 292.828125 430.597656 L 291.695312 429.925781 L 290.558594 429.25 L 288.964844 429.019531 L 288.0625 429.019531 Z M 287.601562 449.867188 L 285.332031 449.636719 L 283.507812 448.960938 L 281.6875 447.828125 L 280.320312 446.234375 L 279.1875 444.414062 L 278.285156 441.917969 L 277.824219 439.421875 L 277.59375 436.234375 L 277.824219 433.277344 L 278.285156 430.78125 L 279.1875 428.515625 L 280.320312 426.691406 L 281.6875 425.101562 L 283.507812 423.96875 L 285.546875 423.292969 L 287.816406 423.0625 L 289.179688 423.292969 L 290.773438 423.753906 L 292.136719 424.425781 L 293.5 425.558594 L 293.5 416.246094 L 299.863281 413.078125 L 299.863281 449.40625 L 293.5 449.40625 L 293.5 447.367188 L 292.136719 448.503906 L 290.542969 449.40625 L 289.179688 449.867188 Z M 62.589844 449.40625 L 62.589844 423.753906 L 68.949219 423.753906 L 68.949219 426.019531 L 70.085938 424.65625 L 71.449219 423.753906 L 72.8125 423.292969 L 74.636719 423.0625 L 75.769531 423.292969 L 77.132812 423.523438 L 78.269531 423.980469 L 79.402344 424.65625 L 77.578125 430.78125 L 76.675781 430.324219 L 75.539062 429.863281 L 74.636719 429.632812 L 73.5 429.402344 L 72.367188 429.632812 L 71.464844 429.863281 L 70.558594 430.324219 L 70.101562 430.996094 L 69.425781 431.671875 L 68.964844 433.9375 L 68.964844 449.375 L 62.589844 449.375 Z M 21.226562 449.40625 L 18.5 438.730469 L 16.902344 433.050781 L 15.539062 438.945312 L 12.8125 449.390625 L 7.355469 449.390625 L 7.125 449.160156 L 0.320312 424.625 L 0.320312 423.722656 L 6.4375 423.722656 L 8.933594 433.261719 L 10.070312 439.621094 L 10.972656 436.21875 L 11.664062 433.035156 L 14.390625 423.722656 L 19.847656 423.722656 L 22.34375 433.035156 L 23.9375 439.621094 L 25.300781 433.035156 L 27.570312 423.722656 L 33.929688 423.722656 L 26.652344 449.375 L 21.226562 449.375 Z M 44.859375 429.664062 L 43.953125 430.339844 L 43.050781 431.011719 L 42.589844 432.144531 L 42.128906 433.507812 L 41.898438 434.871094 L 41.671875 436.464844 L 41.898438 438.058594 L 42.128906 439.648438 L 42.589844 440.785156 L 43.050781 441.917969 L 43.953125 442.820312 L 44.859375 443.496094 L 45.761719 443.722656 L 46.898438 443.953125 L 48.03125 443.722656 L 48.933594 443.496094 L 49.839844 442.820312 L 50.742188 441.917969 L 51.203125 440.785156 L 51.664062 439.648438 L 52.121094 438.058594 L 52.121094 434.871094 L 51.664062 433.507812 L 51.203125 432.144531 L 50.742188 431.011719 L 49.839844 430.339844 L 48.933594 429.664062 L 48.03125 429.203125 L 45.761719 429.203125 Z M 44.398438 449.636719 L 42.128906 448.960938 L 40.304688 447.828125 L 38.484375 446.234375 L 37.117188 444.199219 L 35.984375 441.933594 L 35.523438 439.4375 L 35.296875 436.480469 L 35.523438 433.753906 L 35.984375 431.257812 L 37.117188 428.761719 L 38.484375 426.9375 L 40.304688 425.34375 L 42.128906 424.210938 L 44.398438 423.308594 L 46.898438 423.078125 L 49.394531 423.308594 L 51.664062 424.210938 L 53.488281 425.34375 L 55.308594 426.9375 L 56.675781 428.761719 L 57.808594 431.257812 L 58.269531 433.753906 L 58.5 436.480469 L 58.269531 439.4375 L 57.808594 441.933594 L 56.675781 444.199219 L 55.308594 446.234375 L 53.488281 447.828125 L 51.664062 448.960938 L 49.394531 449.636719 L 46.898438 449.867188 Z M 246.910156 449.40625 L 246.910156 423.753906 L 253.273438 423.753906 L 253.273438 426.019531 L 254.636719 424.65625 L 256 423.753906 L 257.363281 423.292969 L 258.957031 423.0625 L 260.320312 423.292969 L 261.6875 423.523438 L 262.820312 423.980469 L 263.722656 424.65625 L 262.128906 430.78125 L 261.226562 430.324219 L 260.09375 429.863281 L 258.957031 429.632812 L 257.824219 429.402344 L 256.917969 429.632812 L 256.015625 429.863281 L 255.109375 430.324219 L 254.4375 430.996094 L 253.976562 431.671875 L 253.515625 433.9375 L 253.289062 435.53125 L 253.289062 449.375 L 246.910156 449.375 Z M 205.777344 449.40625 L 202.820312 438.730469 L 201.457031 433.050781 L 200.09375 438.945312 L 197.132812 449.390625 L 191.679688 449.390625 L 191.679688 449.160156 L 184.398438 423.738281 L 190.988281 423.738281 L 193.257812 433.277344 L 194.621094 439.632812 L 195.296875 436.234375 L 196.199219 433.050781 L 198.925781 423.738281 L 204.152344 423.738281 L 206.882812 433.050781 L 208.476562 439.632812 L 209.839844 433.050781 L 212.105469 423.738281 L 218.46875 423.738281 L 211.1875 449.390625 Z M 229.195312 429.664062 L 228.292969 430.339844 L 227.617188 431.011719 L 226.941406 432.144531 L 226.484375 433.507812 L 226.253906 434.871094 L 226.253906 438.058594 L 226.484375 439.648438 L 226.941406 440.785156 L 227.617188 441.917969 L 228.292969 442.820312 L 229.195312 443.496094 L 230.328125 443.722656 L 231.464844 443.953125 L 232.597656 443.722656 L 233.5 443.496094 L 234.40625 442.820312 L 235.097656 441.917969 L 235.769531 440.785156 L 236.230469 439.648438 L 236.460938 438.058594 L 236.460938 434.871094 L 236.230469 433.507812 L 235.769531 432.144531 L 235.097656 431.011719 L 234.40625 430.339844 L 233.5 429.664062 L 232.597656 429.203125 L 230.328125 429.203125 Z M 228.964844 449.636719 L 226.699219 448.960938 L 224.660156 447.828125 L 223.066406 446.234375 L 221.699219 444.199219 L 220.566406 441.933594 L 219.878906 439.4375 L 219.648438 436.480469 L 219.878906 433.753906 L 220.566406 431.257812 L 221.699219 428.992188 L 223.066406 426.953125 L 224.660156 425.359375 L 226.699219 424.226562 L 228.964844 423.324219 L 231.464844 423.09375 L 233.730469 423.324219 L 236 424.226562 L 238.039062 425.359375 L 239.632812 426.953125 L 241.226562 428.992188 L 242.128906 431.257812 L 242.804688 433.753906 L 243.035156 436.480469 L 242.804688 439.4375 L 242.128906 441.933594 L 241.226562 444.199219 L 239.632812 446.234375 L 238.039062 447.828125 L 236 448.960938 L 233.730469 449.636719 L 231.464844 449.867188 Z M 97.363281 449.40625 L 91.90625 437.367188 L 88.71875 441.6875 L 88.71875 449.40625 L 82.359375 449.40625 L 82.359375 416.261719 L 88.71875 413.078125 L 88.71875 433.507812 L 90.988281 430.324219 L 95.984375 423.738281 L 103.480469 423.738281 L 96.660156 432.128906 L 104.382812 449.390625 Z M 136.230469 449.40625 L 136.230469 433.738281 L 136 432.375 L 135.539062 431.242188 L 135.082031 430.566406 L 134.40625 429.894531 L 133.714844 429.433594 L 132.8125 428.976562 L 130.542969 428.976562 L 129.410156 429.433594 L 128.734375 429.894531 L 128.0625 430.566406 L 127.386719 431.472656 L 127.15625 432.375 L 126.925781 433.738281 L 126.699219 435.101562 L 126.699219 449.40625 L 120.335938 449.40625 L 120.335938 423.753906 L 126.699219 423.753906 L 126.699219 425.789062 L 128.0625 424.65625 L 129.65625 423.753906 L 131.25 423.292969 L 133.289062 423.0625 L 135.324219 423.292969 L 137.363281 423.96875 L 138.957031 424.871094 L 140.320312 426.003906 L 141.226562 427.828125 L 141.898438 429.863281 L 142.359375 432.128906 L 142.589844 434.855469 L 142.589844 449.390625 L 136.230469 449.390625 Z M 156.460938 429.203125 L 155.554688 429.664062 L 154.882812 430.339844 L 154.191406 431.242188 L 153.730469 432.375 L 153.5 434.199219 L 153.273438 436.019531 L 153.5 438.285156 L 153.730469 440.109375 L 154.191406 441.472656 L 154.882812 442.605469 L 155.785156 443.28125 L 156.460938 443.738281 L 157.363281 443.96875 L 159.632812 443.96875 L 160.765625 443.296875 L 161.898438 442.390625 L 162.574219 441.488281 L 162.574219 431.503906 L 161.898438 430.597656 L 160.996094 429.925781 L 159.632812 429.25 L 158.039062 429.019531 L 157.363281 429.019531 Z M 154.191406 454.859375 L 154.421875 454.859375 L 157.148438 454.628906 L 159.1875 454.167969 L 160.550781 453.265625 L 161.6875 452.363281 L 162.144531 451.457031 L 162.605469 450.324219 L 162.605469 447.382812 L 161.472656 448.519531 L 159.878906 449.191406 L 158.511719 449.867188 L 156.917969 449.867188 L 154.652344 449.636719 L 152.613281 448.960938 L 151.019531 447.828125 L 149.425781 446.234375 L 148.292969 444.414062 L 147.617188 441.917969 L 147.15625 439.191406 L 146.925781 436.234375 L 147.15625 433.277344 L 147.617188 430.78125 L 148.519531 428.515625 L 149.65625 426.691406 L 151.019531 425.101562 L 152.84375 423.96875 L 154.667969 423.292969 L 156.933594 423.0625 L 158.527344 423.292969 L 160.121094 423.753906 L 161.488281 424.425781 L 162.621094 425.558594 L 162.621094 423.738281 L 168.980469 423.738281 L 168.980469 446.894531 L 168.75 449.851562 L 168.292969 452.578125 L 167.386719 454.84375 L 166.710938 455.746094 L 166.039062 456.421875 L 165.132812 457.324219 L 164.230469 458 L 161.960938 458.902344 L 159.464844 459.574219 L 156.503906 459.804688 Z M 108.277344 423.753906 L 114.636719 423.753906 L 114.636719 449.40625 L 108.277344 449.40625 Z M 108.277344 413.765625 L 114.636719 413.765625 L 114.636719 420.121094 L 108.277344 420.121094 Z M 266.910156 449.40625 L 266.910156 416.261719 L 273.273438 413.078125 L 273.273438 449.40625 Z M 2.589844 334.078125 L 2.589844 189.699219 L 84.644531 189.699219 L 103.738281 222.84375 L 45.761719 222.84375 L 45.761719 246.671875 L 98.269531 246.671875 L 98.269531 277.089844 L 45.761719 277.089844 L 45.761719 300.921875 L 118.269531 300.921875 L 118.269531 334.0625 L 2.589844 334.0625 Z M 191.90625 334.078125 L 191.90625 277.105469 L 242.589844 189.699219 L 195.082031 189.699219 L 170.527344 236.917969 L 146.207031 189.699219 L 98.269531 189.699219 L 148.71875 277.105469 L 148.71875 334.078125 Z M 191.90625 334.078125 "/>
</g>
</svg>
