<?xml version="1.0" encoding="UTF-8"?>
<svg xmlns="http://www.w3.org/2000/svg" xmlns:xlink="http://www.w3.org/1999/xlink" width="400pt" height="137pt" viewBox="0 0 400 137" version="1.1">
<g id="surface1">
<path style=" stroke:none;fill-rule:nonzero;fill:rgb(0%,38.823529%,25.490196%);fill-opacity:1;" d="M 103.476562 54.371094 L 103.476562 8.496094 L 129.984375 26.335938 L 129.984375 108.742188 L 6.851562 27.195312 L 35.058594 8.496094 Z M 137.6875 22.953125 L 103.476562 -0.0273438 L 69.292969 22.953125 L 35.058594 -0.0273438 L 0 22.953125 L 0 113.835938 L 35.074219 136.773438 L 69.292969 113.835938 L 103.5 136.773438 L 137.710938 113.835938 Z M 35.058594 90.898438 L 62.425781 109.589844 L 35.058594 128.277344 Z M 35.058594 90.898438 "/>
<path style=" stroke:none;fill-rule:nonzero;fill:rgb(0%,38.823529%,25.490196%);fill-opacity:1;" d="M 166.5625 102.730469 L 161.992188 102.730469 L 161.992188 79.972656 L 166.5625 79.972656 Z M 166.5625 102.730469 "/>
<path style=" stroke:none;fill-rule:nonzero;fill:rgb(0%,38.823529%,25.490196%);fill-opacity:1;" d="M 192.253906 102.730469 L 187.949219 102.730469 L 176.328125 87.53125 L 176.328125 102.730469 L 171.761719 102.730469 L 171.761719 79.972656 L 176.007812 79.972656 L 187.644531 95.167969 L 187.644531 79.972656 L 192.226562 79.972656 Z M 192.253906 102.730469 "/>
<path style=" stroke:none;fill-rule:nonzero;fill:rgb(0%,38.823529%,25.490196%);fill-opacity:1;" d="M 209.359375 102.730469 L 203.816406 102.730469 L 195.210938 79.972656 L 200.070312 79.972656 L 206.605469 98.125 L 213.203125 79.972656 L 217.949219 79.972656 Z M 209.359375 102.730469 "/>
<path style=" stroke:none;fill-rule:nonzero;fill:rgb(0%,38.823529%,25.490196%);fill-opacity:1;" d="M 238.03125 102.730469 L 220.910156 102.730469 L 220.910156 79.972656 L 237.898438 79.972656 L 237.898438 84.128906 L 225.480469 84.128906 L 225.480469 89.171875 L 237.328125 89.171875 L 237.328125 93.332031 L 225.480469 93.332031 L 225.480469 98.570312 L 238.03125 98.570312 Z M 238.03125 102.730469 "/>
<path style=" stroke:none;fill-rule:nonzero;fill:rgb(0%,38.823529%,25.490196%);fill-opacity:1;" d="M 258.210938 85.710938 C 256.269531 84.472656 254.015625 83.800781 251.710938 83.773438 C 249.144531 83.773438 247.324219 84.78125 247.324219 86.503906 C 247.324219 88.222656 249.300781 88.683594 252.054688 89.132812 L 253.34375 89.347656 C 257.433594 90.015625 260.644531 91.757812 260.644531 95.726562 C 260.644531 100.75 256.164062 103.136719 251.269531 103.136719 C 247.800781 103.136719 244.070312 102.128906 241.613281 100.171875 L 243.988281 96.519531 C 246.085938 98.105469 248.648438 98.964844 251.285156 98.972656 C 253.824219 98.972656 255.761719 97.980469 255.761719 96.222656 C 255.761719 94.640625 254.089844 94.058594 250.90625 93.550781 L 249.410156 93.324219 C 245.367188 92.683594 242.425781 90.914062 242.425781 86.804688 C 242.425781 82.0625 246.679688 79.585938 251.5625 79.585938 C 254.660156 79.535156 257.707031 80.375 260.335938 82.003906 Z M 258.210938 85.710938 "/>
<path style=" stroke:none;fill-rule:nonzero;fill:rgb(0%,38.823529%,25.490196%);fill-opacity:1;" d="M 281.382812 84.210938 L 274.277344 84.210938 L 274.277344 102.746094 L 269.710938 102.746094 L 269.710938 84.210938 L 262.578125 84.210938 L 262.578125 79.972656 L 281.382812 79.972656 Z M 281.382812 84.210938 "/>
<path style=" stroke:none;fill-rule:nonzero;fill:rgb(0%,38.823529%,25.490196%);fill-opacity:1;" d="M 309.792969 102.730469 L 305.226562 102.730469 L 305.226562 85.546875 L 299.5625 100.535156 L 294.734375 100.535156 L 289.070312 85.710938 L 289.070312 102.761719 L 284.5 102.761719 L 284.5 80 L 291.21875 80 L 297.1875 95.363281 L 303.160156 80 L 309.875 80 Z M 309.792969 102.730469 "/>
<path style=" stroke:none;fill-rule:nonzero;fill:rgb(0%,38.823529%,25.490196%);fill-opacity:1;" d="M 332.113281 102.730469 L 314.996094 102.730469 L 314.996094 79.972656 L 331.980469 79.972656 L 331.980469 84.128906 L 319.5625 84.128906 L 319.5625 89.171875 L 331.414062 89.171875 L 331.414062 93.332031 L 319.5625 93.332031 L 319.5625 98.570312 L 332.113281 98.570312 Z M 332.113281 102.730469 "/>
<path style=" stroke:none;fill-rule:nonzero;fill:rgb(0%,38.823529%,25.490196%);fill-opacity:1;" d="M 357.285156 102.730469 L 353.003906 102.730469 L 341.382812 87.53125 L 341.382812 102.730469 L 336.816406 102.730469 L 336.816406 79.972656 L 341.085938 79.972656 L 352.71875 95.167969 L 352.71875 79.972656 L 357.300781 79.972656 Z M 357.285156 102.730469 "/>
<path style=" stroke:none;fill-rule:nonzero;fill:rgb(0%,38.823529%,25.490196%);fill-opacity:1;" d="M 379.179688 84.210938 L 372.078125 84.210938 L 372.078125 102.746094 L 367.507812 102.746094 L 367.507812 84.210938 L 360.414062 84.210938 L 360.414062 79.972656 L 379.179688 79.972656 Z M 379.179688 84.210938 "/>
<path style=" stroke:none;fill-rule:nonzero;fill:rgb(0%,38.823529%,25.490196%);fill-opacity:1;" d="M 397.6875 85.710938 C 395.746094 84.472656 393.496094 83.800781 391.1875 83.773438 C 388.621094 83.773438 386.800781 84.78125 386.800781 86.503906 C 386.800781 88.222656 388.777344 88.683594 391.53125 89.132812 L 392.824219 89.347656 C 396.914062 90.015625 400.121094 91.757812 400.121094 95.726562 C 400.121094 100.75 395.644531 103.136719 390.75 103.136719 C 387.277344 103.136719 383.546875 102.128906 381.09375 100.171875 L 383.464844 96.519531 C 385.5625 98.105469 388.125 98.964844 390.761719 98.972656 C 393.300781 98.972656 395.242188 97.980469 395.242188 96.222656 C 395.242188 94.640625 393.570312 94.058594 390.382812 93.550781 L 388.890625 93.324219 C 384.84375 92.683594 381.90625 90.914062 381.90625 86.804688 C 381.90625 82.0625 386.160156 79.585938 391.039062 79.585938 C 394.132812 79.542969 397.171875 80.382812 399.792969 82.011719 Z M 397.6875 85.710938 "/>
<path style=" stroke:none;fill-rule:nonzero;fill:rgb(0%,38.823529%,25.490196%);fill-opacity:1;" d="M 379.152344 69.421875 L 379.152344 61.15625 L 384.890625 61.15625 C 392.039062 61.15625 394.851562 58.011719 394.851562 52.074219 C 394.851562 46.253906 392.039062 42.875 384.890625 42.875 L 372.121094 42.875 L 372.121094 69.414062 Z M 379.152344 55.335938 L 379.152344 48.464844 L 384.070312 48.464844 C 387.234375 48.464844 387.933594 49.746094 387.933594 51.957031 C 387.933594 54.164062 387.234375 55.328125 384.070312 55.328125 Z M 309.417969 69.421875 L 302.972656 60.222656 C 306.488281 58.828125 308.480469 55.773438 308.480469 51.835938 C 308.480469 46.019531 305.667969 42.875 298.515625 42.875 L 285.636719 42.875 L 285.636719 69.414062 L 292.664062 69.414062 L 292.664062 61.15625 L 295.710938 61.15625 L 301.21875 69.421875 Z M 292.664062 48.464844 L 297.703125 48.464844 C 300.867188 48.464844 301.570312 49.746094 301.570312 51.726562 C 301.570312 53.949219 300.867188 55.335938 297.703125 55.335938 L 292.664062 55.335938 Z M 219.890625 63.832031 L 205.589844 63.832031 L 205.589844 58.828125 L 217.53125 58.828125 L 217.53125 53.238281 L 205.589844 53.238281 L 205.589844 48.464844 L 219.890625 48.464844 L 219.890625 42.875 L 198.5625 42.875 L 198.5625 69.414062 L 219.890625 69.414062 Z M 225.046875 69.421875 L 238.171875 69.421875 C 247.074219 69.421875 251.417969 65.464844 251.417969 56.152344 C 251.417969 46.601562 246.941406 42.882812 238.171875 42.882812 L 225.046875 42.882812 Z M 232.074219 63.832031 L 232.074219 48.464844 L 237.582031 48.464844 C 240.980469 48.464844 243.679688 50.09375 243.679688 56.144531 C 243.679688 62.195312 240.988281 63.824219 237.582031 63.824219 Z M 186.375 42.875 L 186.375 58.945312 L 175.710938 42.875 L 167.269531 42.875 L 167.269531 69.414062 L 174.300781 69.414062 L 174.300781 53.476562 L 184.964844 69.421875 L 193.402344 69.421875 L 193.402344 42.875 Z M 255.03125 56.261719 C 255.03125 64.300781 258.546875 69.882812 268.160156 69.882812 C 277.859375 69.882812 281.867188 65.921875 281.867188 56.261719 C 281.890625 55.484375 281.847656 54.707031 281.746094 53.933594 L 268.285156 53.933594 L 268.285156 59.523438 L 274.253906 59.523438 C 273.679688 62.203125 272.507812 63.726562 268.546875 63.726562 C 264.328125 63.726562 262.808594 60.464844 262.808594 56.316406 C 262.808594 51.660156 264.449219 48.632812 268.316406 48.632812 C 270.660156 48.632812 272.046875 48.984375 273.589844 51.082031 L 279.449219 47.003906 C 276.636719 43.296875 272.179688 42.464844 268.316406 42.464844 C 258.613281 42.464844 255.070312 48.398438 255.070312 56.324219 Z M 325.261719 69.890625 C 334.636719 69.890625 339.089844 65.441406 339.089844 56.152344 C 339.089844 46.863281 334.382812 42.414062 325.261719 42.414062 C 316.242188 42.414062 311.433594 46.863281 311.433594 56.152344 C 311.433594 65.441406 315.914062 69.890625 325.261719 69.890625 Z M 325.261719 48.582031 C 328.777344 48.582031 331.351562 50.066406 331.351562 56.152344 C 331.351562 62.4375 328.777344 63.722656 325.261719 63.722656 C 321.75 63.722656 319.167969 62.4375 319.167969 56.152344 C 319.167969 50.09375 321.75 48.582031 325.261719 48.582031 Z M 342.84375 59.761719 C 342.84375 67.679688 348.003906 69.890625 355.152344 69.890625 C 361.710938 69.890625 366.988281 67.664062 366.988281 59.761719 L 366.988281 42.875 L 359.957031 42.875 L 359.957031 58.242188 C 359.957031 62.203125 358.546875 63.714844 355.152344 63.714844 C 351.421875 63.714844 349.875 62.230469 349.875 58.242188 L 349.875 42.875 L 342.84375 42.875 Z M 342.84375 59.761719 "/>
</g>
</svg>
